# xmcd
#
# Track frame offsets: 
#        150
#        9880
#        22349
#        35497
#        46763
#        58317
#        72528
#        83428
#        95738
#        107165
#        121622
#        134463
#        144269
#        160312
#        174564
#        186164
#        199242
#        211423
#
# Disc length: 2953 seconds
#
# Revision: 4
# Processed by: cddbd v1.5.2PL0 Copyright (c) Steve Scherf et al.
# Submitted via: ExactAudioCopy v0.99pb5
#
DISCID=fe0b8712
DTITLE=Various Artist - This Is Louisiana: Swamp Pop And Cajun From Bayou Cou
DTITLE=ntry
DYEAR=2001
DGENRE=Cajun
TTITLE0=Johnnie Allan - The Promised Land
TTITLE1=Frankie Ford - Sea Cruise
TTITLE2=Nathan Abshire - Pine Grove Blues
TTITLE3=Jimmy 'C' Newman - Lache Pas La Patate
TTITLE4=Cleveland Crochet - Sugar Bee
TTITLE5=Danny White - Kiss Tomorrow Goodbye
TTITLE6=Rod Bernard - Recorded in England
TTITLE7=Belton Richard - Another Sleepless Night
TTITLE8=Huey 'Piano' Smith - Don't You Just Know It
TTITLE9=Cookie and The Cupcakes - Mathilda
TTITLE10=Dewey Balfa - Equand J'etais Petit
TTITLE11=Jimmy 'C' Newman - Jolie Blonde
TTITLE12=Rockin' Sydney - My Toot Toot
TTITLE13=Margaret Lewis - Reconsider Me
TTITLE14=Shirley Bergeron - French Rockin' Boogie
TTITLE15=The Balfa Brothers - La Valse De Grand Bois
TTITLE16=Danny James - Boogie In The Mud
TTITLE17=Tammi Lynn - Mojo Hannah
EXTD=swamp pop and cajun from bayou country
EXTT0=
EXTT1=
EXTT2=
EXTT3=
EXTT4=
EXTT5=
EXTT6=
EXTT7=
EXTT8=
EXTT9=
EXTT10=
EXTT11=
EXTT12=
EXTT13=
EXTT14=
EXTT15=
EXTT16=
EXTT17=
PLAYORDER=
